<svg xmlns="http://www.w3.org/2000/svg" width="24" height="24" viewBox="0 0 24 24"><path d="M16.884 15.333l.907 3.176a.667.667 0 11-1.282.366l-1.012-3.542H8.292a1 1 0 01-.991-.868L6.083 5.333H4.667a.667.667 0 110-1.333H7.25l1.334 10h10.75a.667.667 0 010 1.333h-2.45zM8.667 20a2 2 0 110-4 2 2 0 010 4zm0-1.333a.667.667 0 100-1.334.667.667 0 000 1.334zm2-13.334v6H18v-6h-7.333zM19.333 5v6.667a1 1 0 01-1 1h-8a1 1 0 01-1-1V5a1 1 0 011-1h8a1 1 0 011 1zm-6.666 3.149v-.982a.5.5 0 01.5-.5H15.5a.5.5 0 01.5.5v.982a.5.5 0 01-.5.5h-2.333a.5.5 0 01-.5-.5z"/></svg>
