<svg xmlns="http://www.w3.org/2000/svg" width="20" height="20" viewBox="0 0 20 20" fill="none"> <path d="M9.74988 0C10.1641 0 10.4999 0.335786 10.4999 0.75C10.4999 1.16421 10.1641 1.5 9.74988 1.5C8.11827 1.5 6.52354 1.98419 5.16688 2.89062C3.81019 3.79714 2.75224 5.08531 2.12781 6.59277C1.50341 8.10021 1.33981 9.75909 1.65809 11.3594C1.97642 12.9597 2.76212 14.4302 3.9159 15.584C5.06968 16.7378 6.54017 17.5235 8.14051 17.8418C9.7408 18.1601 11.3997 17.9965 12.9071 17.3721C14.4146 16.7476 15.7027 15.6897 16.6093 14.333C17.5157 12.9763 17.9999 11.3816 17.9999 9.75C17.9999 9.33579 18.3357 9 18.7499 9C19.1641 9 19.4999 9.33579 19.4999 9.75C19.4999 11.6784 18.9277 13.5636 17.8563 15.167C16.785 16.7702 15.2627 18.0199 13.4813 18.7578C11.6998 19.4958 9.73886 19.6887 7.84754 19.3125C5.95632 18.9363 4.21886 18.008 2.85535 16.6445C1.49185 15.281 0.563621 13.5436 0.187385 11.6523C-0.188821 9.76103 0.00411808 7.80013 0.742073 6.01855C1.47999 4.23719 2.72973 2.71484 4.33289 1.64355C5.93627 0.572211 7.82152 0 9.74988 0Z" fill="currentColor"/> </svg>
