<svg xmlns="http://www.w3.org/2000/svg" width="20" height="25" viewBox="0 0 20 25">
    <g fill-rule="evenodd">
        <path fill-rule="nonzero" d="M1.5 1.5v22h16.048V6.574L12.474 1.5H1.5zM1.19 0h11.905L18.7 5.604c.223.223.349.526.349.841V23.81a1.19 1.19 0 0 1-1.19 1.19H1.19A1.19 1.19 0 0 1 0 23.81V1.19C0 .533.533 0 1.19 0z"/>
        <path d="M10.271 15.532c.675 0 1.415-.343 1.961-.878l.986 1.082c-.782.814-1.929 1.339-3.032 1.339-1.8 0-3.247-1.082-3.74-2.636H5.332v-.793h.954a4.92 4.92 0 0 1-.022-.407c0-.16.011-.31.022-.46h-.954v-.793h1.136c.525-1.511 1.982-2.54 3.793-2.54 1.093 0 2.218.483 2.957 1.243l-.986 1.2c-.514-.589-1.253-.975-1.96-.975-.826 0-1.543.418-1.94 1.072h2.475v.793H8.032c-.032.139-.043.289-.043.439 0 .15.011.29.032.428h2.786v.793H8.321a2.245 2.245 0 0 0 1.95 1.093z"/>
        <path fill-rule="nonzero" d="M15.75 5.11L13.64 3v2.177l2.109-.068zm-3.609.842V1.19a.75.75 0 0 1 1.28-.53l4.613 4.613a.75.75 0 0 1-.506 1.28l-4.613.149a.75.75 0 0 1-.774-.75z"/>
    </g>
</svg>
