<svg xmlns="http://www.w3.org/2000/svg" width="29" height="23" viewBox="0 0 29 23">
    <g fill-rule="evenodd">
        <path d="M1.181 6.6v1.899h1.278v.9H1.181V12h-.99V5.7H2.81v.9H1.181zM6.365 12H5.357c-.054-.162-.09-.261-.09-.774v-.99c0-.585-.198-.801-.648-.801h-.342V12h-.99V5.7h1.494c1.026 0 1.467.477 1.467 1.449v.495c0 .648-.207 1.071-.648 1.278.495.207.657.684.657 1.341v.972c0 .306.009.531.108.765zM4.754 6.6h-.477v1.935h.387c.369 0 .594-.162.594-.666v-.621c0-.45-.153-.648-.504-.648zm3.141 0v1.755h1.359v.9H7.895V11.1h1.71v.9h-2.7V5.7h2.7v.9h-1.71zm3.312 0v1.755h1.359v.9h-1.359V11.1h1.71v.9h-2.7V5.7h2.7v.9h-1.71z"/>
        <path fill-rule="nonzero" d="M28.398 9.326v6.136c0 3.039-1.792 4.019-5.64 4.019v-1.5c3.13 0 4.14-.553 4.14-2.52v-4.635h-9.99V2.083H11.31c-.661 0-.661-1.5 0-1.5h7.098v8.743h9.99z"/>
        <path fill-rule="nonzero" d="M17.734 3.543v-1.5h5.149l5.414 7.444-1.213.882-4.965-6.826zM19.818 22.75c-2.168 0-3.932-1.733-3.932-3.878 0-2.144 1.764-3.877 3.932-3.877 2.169 0 3.932 1.733 3.932 3.877 0 2.145-1.763 3.878-3.932 3.878zm0-1.5c1.346 0 2.432-1.067 2.432-2.378 0-1.31-1.086-2.377-2.432-2.377-1.346 0-2.432 1.067-2.432 2.377 0 1.31 1.086 2.378 2.432 2.378zM8.91 22.75c-2.17 0-3.933-1.733-3.933-3.878 0-2.144 1.763-3.877 3.932-3.877s3.932 1.733 3.932 3.877c0 2.145-1.763 3.878-3.932 3.878zm0-1.5c1.345 0 2.43-1.067 2.43-2.378 0-1.31-1.085-2.377-2.43-2.377-1.347 0-2.433 1.067-2.433 2.377 0 1.31 1.086 2.378 2.432 2.378z"/>
        <path d="M12.091 18.426h4.545v1.5h-4.545zM3 18.426h2.727v1.5H3c-.667-.5-.667-1 0-1.5z"/>
    </g>
</svg>
