<svg xmlns="http://www.w3.org/2000/svg" width="22" height="22" viewBox="0 0 22 22">
    <g fill-rule="evenodd">
        <path fill-rule="nonzero" d="M4.074 3.13A2.574 2.574 0 0 0 1.5 5.704v12.222A2.574 2.574 0 0 0 4.074 20.5h13.852a2.574 2.574 0 0 0 2.574-2.574V5.704a2.574 2.574 0 0 0-2.574-2.574H4.074zm0-1.5h13.852A4.074 4.074 0 0 1 22 5.704v12.222A4.074 4.074 0 0 1 17.926 22H4.074A4.074 4.074 0 0 1 0 17.926V5.704A4.074 4.074 0 0 1 4.074 1.63z"/>
        <rect width="2.99" height="1.63" x="4.074" y="7.333" rx=".815"/>
        <rect width="2.99" height="1.63" x="9.37" y="7.333" rx=".815"/>
        <rect width="2.99" height="1.63" x="14.667" y="7.333" rx=".815"/>
        <rect width="2.99" height="1.63" x="4.074" y="11.407" rx=".815"/>
        <rect width="2.99" height="1.63" x="9.37" y="11.407" rx=".815"/>
        <rect width="2.99" height="1.63" x="14.667" y="11.407" rx=".815"/>
        <rect width="2.99" height="1.63" x="4.074" y="15.481" rx=".815"/>
        <rect width="2.99" height="1.63" x="9.37" y="15.481" rx=".815"/>
        <rect width="2.99" height="1.63" x="14.667" y="15.481" rx=".815"/>
        <rect width="1.5" height="4.074" x="5.704" rx=".75"/>
        <rect width="1.5" height="4.074" x="10.593" rx=".75"/>
        <rect width="1.5" height="4.074" x="15.481" rx=".75"/>
    </g>
</svg>
