<svg width="175" height="100" viewBox="0 0 175 100" xmlns="http://www.w3.org/2000/svg">
    <g fill="none" fill-rule="evenodd">
        <rect stroke="#E5E5E5" stroke-width=".833" fill="#FFF" x=".417" y=".417" width="174.167" height="99.167" rx="5"/>
        <g transform="translate(10 10)">
            <rect fill="#F2F2F2" width="75" height="80" rx="2.5"/>
            <path d="M44 29.583h-2.75c0 2.125-1.75 3.75-3.75 3.75s-3.75-1.625-3.75-3.75H31l-3.5 1.75v5.75c0 .75.5 1.25 1.25 1.25h2.5v10c0 .75.5 1.25 1.25 1.25h10c.75 0 1.25-.5 1.25-1.25v-10h2.5c.75 0 1.25-.5 1.25-1.25v-5.75l-3.5-1.75z" fill="#D9D9D9" fill-rule="nonzero"/>
        </g>
        <rect fill="#F2F2F2" x="97.5" y="41.743" width="15" height="13.294" rx=".833"/>
        <rect fill="#F2F2F2" x="115.833" y="41.743" width="15" height="13.294" rx=".833"/>
        <rect fill="#F2F2F2" x="134.583" y="41.743" width="15" height="13.294" rx=".833"/>
        <rect fill="#F2F2F2" x="97.5" y="23.463" width="65.833" height="4.985" rx="2.493"/>
        <g transform="translate(97.5 65.963)">
            <rect fill="#9B9B9B" width="57.5" height="14.125" rx="1.667"/>
            <rect stroke="#E5E5E5" stroke-width=".833" fill="#E5E5E5" x="28.333" y="3.739" width="1" height="6.647" rx=".417"/>
            <path d="M32.083 7.063c0 .229-.186.415-.415.415h-5.836a.415.415 0 0 1 0-.83h5.836c.23 0 .415.185.415.415z" stroke="#E5E5E5" stroke-width=".833" fill="#E5E5E5"/>
        </g>
        <rect fill="#F2F2F2" x="97.5" y="32.603" width="45.417" height="4.985" rx="2.493"/>
    </g>
</svg>
