<svg xmlns="http://www.w3.org/2000/svg" width="34" height="21" viewBox="0 0 34 21">
    <g fill-rule="evenodd">
        <path fill-rule="nonzero" d="M18.957 1.5l-.95 6.266.712-.497 1.412 1.579 1.604-1.524 1.48 1.047 1.04-6.871h-5.298zM17.667 0H26l-1.667 11-2.458-1.74L20.043 11l-1.555-1.74L16 11l1.667-11z"/>
        <path fill-rule="nonzero" d="M31.57 1.5H10.882c-.382 0-.692-.336-.692-.75s.31-.75.692-.75h21.534c.439 0 .767.435.679.9l-3.572 18.926c-.066.35-.35.6-.678.6H9.693c-.383 0-.693-.335-.693-.75 0-.414.31-.75.693-.75H28.28L31.569 1.5z"/>
        <rect width="10" height="1.5" y="5" rx=".75"/>
        <rect width="12" height="1.5" x="1" y="9" rx=".75"/>
        <rect width="8" height="1.5" x="2" y="13" rx=".75"/>
    </g>
</svg>
